<svg width="240" height="50" viewBox="0 0 240 50" fill="none" xmlns="http://www.w3.org/2000/svg">
<g clip-path="url(#clip0_123_1782)">
<mask id="mask0_123_1782" style="mask-type:luminance" maskUnits="userSpaceOnUse" x="0" y="0" width="51" height="50">
<path d="M0 0H50.7298V49.7561H0V0Z" fill="white"/>
</mask>
<g mask="url(#mask0_123_1782)">
<mask id="mask1_123_1782" style="mask-type:luminance" maskUnits="userSpaceOnUse" x="-3" y="-3" width="57" height="56">
<path d="M47.4608 52.0305L-2.11548 46.5601L3.46065 -2.06458L53.0381 3.40453L47.4608 52.0305Z" fill="white"/>
</mask>
<g mask="url(#mask1_123_1782)">
<mask id="mask2_123_1782" style="mask-type:luminance" maskUnits="userSpaceOnUse" x="-3" y="-3" width="57" height="56">
<path d="M47.4608 52.0305L-2.11548 46.5601L3.46065 -2.06458L53.0381 3.40453L47.4608 52.0305Z" fill="white"/>
</mask>
<g mask="url(#mask2_123_1782)">
<path d="M13.9096 4.86413C13.9161 4.87314 13.924 4.88086 13.9319 4.88859L15.8361 6.88496C15.7311 7.07159 15.6707 7.27625 15.6563 7.48477L8.0106 8.52736L12.7534 4.747C13.1051 4.4664 13.6248 4.51917 13.9096 4.86413ZM20.8243 7.01109L15.6012 11.1737C15.1458 11.0373 14.6313 11.1184 14.235 11.435C13.8374 11.7517 13.6524 12.2279 13.6956 12.6926L8.48304 16.8462C8.98829 15.8306 9.58803 14.8614 10.277 13.9489L16.5762 8.92766C17.0592 9.11944 17.63 9.05381 18.0618 8.70885C18.3859 8.45142 18.5684 8.08587 18.6025 7.70873C19.3282 7.4307 20.0697 7.19774 20.8243 7.01109ZM23.8741 1.95131C23.9214 1.50853 24.3256 1.18674 24.7771 1.23179L26.6209 1.41843L23.34 4.96195L23.8702 1.98348C23.8715 1.97319 23.8729 1.9616 23.8741 1.95131ZM26.3059 11.9113L25.634 10.7477C25.9726 10.2354 25.9542 9.54678 25.5395 9.04737C25.2364 8.68182 24.7901 8.49905 24.344 8.5132L23.5658 7.16298C23.9018 6.78456 24.0094 6.26712 23.8676 5.7986L27.3466 2.04269L26.3059 11.9113ZM21.8544 13.4507C21.6878 13.501 21.5212 13.555 21.3571 13.6116L23.8597 11.3128C24.1799 11.4337 24.5369 11.4441 24.8662 11.3346L25.7875 12.9332C24.4529 12.8933 23.1339 13.0671 21.8544 13.4507ZM36.6445 26.0815C36.0055 32.1543 30.4477 36.5834 24.256 35.9553C20.033 35.5266 16.3951 32.7799 14.8768 28.912C14.8689 28.8283 14.8387 28.7472 14.7889 28.6777C14.7862 28.6699 14.7836 28.6622 14.781 28.6558C14.7783 28.6146 14.7704 28.5722 14.756 28.5323C14.2232 27.0108 14.0395 25.4212 14.21 23.8058C14.4516 21.5147 15.3938 19.4566 16.8058 17.8168L17.9463 16.6698C20.2298 14.6838 23.3204 13.6039 26.5881 13.9321C32.7732 14.5641 37.285 20.0126 36.6445 26.0815ZM7.298 27.3699L9.44761 25.2101L12.8689 28.2362L7.298 27.3699ZM7.44498 30.4797C7.21138 29.7537 7.02503 29.0124 6.88593 28.2632L11.7796 29.024L7.44498 30.4797ZM10.8846 23.7672C11.3532 23.9294 11.8951 23.8561 12.3098 23.5252C12.8177 23.1211 12.9804 22.4531 12.7586 21.8841L13.9948 20.6408C13.6117 21.6203 13.3623 22.6474 13.2507 23.7093C13.1156 24.9888 13.1864 26.2527 13.4594 27.4858L10.1221 24.5331L10.8846 23.7672ZM2.11426 26.4972L4.53028 25.6014C5.04996 26.1909 5.9581 26.2733 6.57883 25.7777C6.94366 25.4882 7.12871 25.0647 7.12477 24.6386L9.57622 23.7286L6.13526 27.1859L2.11426 26.4972ZM1.26648 25.8022C1.25599 25.734 1.25336 25.6645 1.25993 25.5937L1.89378 19.5879L4.57227 23.6591C4.29011 23.9526 4.15232 24.34 4.17201 24.7236L1.26648 25.8022ZM2.8098 18.7409C2.8203 18.7409 2.8308 18.7422 2.84261 18.7422L5.85573 18.8412C5.91085 18.9842 5.9896 19.1219 6.09327 19.2481C6.52765 19.7719 7.25601 19.9212 7.85442 19.6534L10.0302 21.8056C9.91746 22.0528 9.87678 22.3256 9.91346 22.5933L6.80062 23.7479L6.79406 23.7389C6.45285 23.327 5.92923 23.1481 5.43054 23.2202L2.50008 18.7666C2.59851 18.7396 2.70219 18.7293 2.8098 18.7409ZM15.2167 14.0081C15.508 13.999 15.7993 13.9051 16.0487 13.7223L17.6589 15.662C17.0644 16.1409 16.5224 16.6673 16.0355 17.2375L12.6982 20.5918L15.2167 14.0081ZM16.6038 12.8946C16.6458 12.726 16.655 12.551 16.6327 12.3785L22.9516 10.852L18.3886 15.0442L16.6038 12.8946ZM8.55259 19.0022C8.72714 18.6701 8.7652 18.284 8.65889 17.9249L14.1142 13.5769C14.1707 13.6334 14.2298 13.6837 14.2928 13.73L11.5277 20.9586C11.2442 20.9303 10.9529 20.9818 10.6917 21.117L8.55259 19.0022ZM22.7298 7.63537L23.4358 8.85816C23.1143 9.12588 22.9372 9.50173 22.9175 9.88662L16.9305 11.3321L21.7521 7.48991C22.0513 7.64695 22.3991 7.69715 22.7298 7.63537ZM10.0237 12.9332L7.77569 9.79647C7.76913 9.78749 7.76125 9.77842 7.75469 9.76945C7.69564 9.69738 7.65102 9.61757 7.61952 9.5352L15.6628 8.43726L10.0237 12.9332ZM6.62214 9.04479C6.61821 9.06796 6.61558 9.09113 6.61427 9.1143C6.57753 9.54549 6.70088 9.98954 6.99616 10.3526L9.33344 13.6142C8.57753 14.6452 7.93054 15.7431 7.39643 16.8926C7.01978 16.8539 6.62608 16.9556 6.30849 17.2092C6.07621 17.3945 5.91742 17.6339 5.83211 17.8939L2.88985 17.7987C2.36885 17.7511 1.87803 17.9287 1.51845 18.2518C1.50271 18.2647 1.48959 18.2775 1.47646 18.2917C1.18774 18.5671 0.993518 18.9391 0.948901 19.3626L0.301918 25.4959C0.257298 25.918 0.37016 26.321 0.593257 26.6479C0.605068 26.6659 0.61688 26.6839 0.630003 26.6994C0.91478 27.0855 1.35704 27.3583 1.87673 27.4163L5.87936 28.1011C6.04997 29.1205 6.30455 30.1309 6.64051 31.1104C6.64183 31.1542 6.65101 31.1992 6.66545 31.2417C6.84918 31.7682 7.05915 32.292 7.29012 32.803L4.32162 35.5266C3.56964 36.138 3.45809 37.2347 4.0762 37.98L8.04079 42.7655C8.65758 43.5095 9.77434 43.6267 10.5381 43.0307L13.8636 40.7383C15.2271 41.6985 16.7049 42.4837 18.2653 43.0745L18.13 47.057C18.0408 48.0107 18.7508 48.8628 19.7246 48.9619L25.9791 49.5952C26.9529 49.6943 27.8269 49.0031 27.9372 48.0519L28.6353 44.1261C30.2862 43.861 31.8965 43.3886 33.4306 42.7218L36.2089 45.6333C36.8309 46.3709 37.949 46.479 38.7089 45.874L43.5881 41.9855C44.3466 41.3806 44.4674 40.2852 43.8584 39.5361L41.5212 36.2744C42.5015 34.9371 43.3007 33.4878 43.9031 31.9573L47.9648 32.0899C48.9359 32.1787 49.8047 31.4798 49.9058 30.526L50.5527 24.3915C50.6538 23.4365 49.9477 22.5792 48.9779 22.4711L44.9752 21.7863C44.7049 20.1657 44.2246 18.5877 43.5448 17.0817L46.512 14.3594C47.264 13.7467 47.3755 12.6514 46.7587 11.9061L42.7929 7.12051C42.176 6.37524 41.0592 6.25811 40.2954 6.85535L36.9699 9.14777C35.6078 8.18755 34.13 7.40239 32.5684 6.81159L32.7036 2.82786C32.7941 1.87537 32.0828 1.02327 31.1091 0.924163L28.0027 0.60881L27.9818 0.606236L27.6695 0.575344H27.6681L24.8755 0.292171C23.9018 0.193061 23.0277 0.884261 22.9175 1.83675L22.3965 4.76373C22.0867 4.77403 21.7783 4.87957 21.5185 5.08681C21.2193 5.32493 21.0408 5.65315 20.9883 5.9994C20.0959 6.20147 19.2193 6.46406 18.3623 6.78585C18.3361 6.74594 18.3085 6.70733 18.2771 6.67C17.8518 6.15772 17.1418 6.00326 16.5513 6.25039L14.6458 4.25402C14.0224 3.51777 12.9057 3.40836 12.1458 4.01332L7.2665 7.90181C6.89511 8.19784 6.67726 8.61231 6.62214 9.04479Z" fill="#E3A72F"/>
</g>
</g>
</g>
<path d="M69.0013 15.2472L69.5196 10.8477C68.2073 10.2801 66.7427 10.0098 65.2178 10.0098C50.4488 10.0098 50.4173 31.7394 65.2178 31.7394C66.7427 31.7394 68.6653 31.379 70.0078 30.841L69.4291 26.4119C68.605 26.8303 67.1089 27.3696 65.2178 27.3696C56.5813 27.3696 56.5813 14.3204 65.2178 14.3204C67.1089 14.3204 68.1772 14.8289 69.0013 15.2472Z" fill="#0049AB"/>
<path d="M78.8258 31.6789H83.1591V22.042L90.7878 10.2801H85.4478L80.9925 17.6425L76.5371 10.2801H71.2287L78.8258 22.042V31.6789Z" fill="#0049AB"/>
<path d="M93.2894 31.6789H101.926C105.465 31.6789 108.364 28.8356 108.364 25.2445C108.364 23.5686 107.54 21.9223 106.105 20.9647C107.48 20.0367 108.059 18.3608 108.12 16.7442C108.212 12.9728 105.801 10.2491 101.926 10.2491H93.2894V31.6789ZM97.6848 14.5289H101.56C102.811 14.5289 103.573 15.4866 103.573 16.6849C103.573 17.8511 102.811 18.8396 101.56 18.8396H97.6848V14.5289ZM97.6848 23.1194H101.56C102.811 23.1194 103.757 24.0474 103.757 25.2445C103.757 26.4415 102.811 27.3992 101.56 27.3992H97.6848V23.1194Z" fill="#0049AB"/>
<path d="M123.53 31.6789V27.3991H116.602V23.1194H122.34V18.8396H116.602V14.5598H123.164V10.2801H112.239V31.6789H123.53Z" fill="#0049AB"/>
<path d="M138.481 31.6789H143.424L138.359 22.8503C144.767 21.0239 144.005 10.2801 136.222 10.2801H127.618V31.6789H131.981V23.5081H134.088L138.481 31.6789ZM131.981 19.348V14.5598H135.826C138.787 14.5598 138.787 19.348 135.826 19.348H131.981Z" fill="#0049AB"/>
<path d="M150.686 20.0367L161.734 32.1282H162.892V10.3096H158.499V22.4012L147.483 9.83081H146.322V31.6789H150.686V20.0367Z" fill="#0049AB"/>
<path d="M179.096 31.6789V27.3991H172.168V23.1194H177.905V18.8396H172.168V14.5598H178.73V10.2801H167.804V31.6789H179.096Z" fill="#0049AB"/>
<path d="M191.147 31.6789V14.5599H196.579V10.3096H181.352V14.5599H186.784V31.6789H191.147Z" fill="#0049AB"/>
<path d="M204.238 31.6789V10.2801H199.874V31.6789H204.238Z" fill="#0049AB"/>
<path d="M223.035 15.2472L223.553 10.8477C222.241 10.2801 220.777 10.0098 219.252 10.0098C204.482 10.0098 204.451 31.7394 219.252 31.7394C220.777 31.7394 222.699 31.379 224.041 30.841L223.462 26.4119C222.638 26.8303 221.142 27.3696 219.252 27.3696C210.615 27.3696 210.615 14.3204 219.252 14.3204C221.142 14.3204 222.211 14.8289 223.035 15.2472Z" fill="#0049AB"/>
<path d="M226.513 30.3016C229.472 31.7986 232.189 31.948 233.41 31.8591C237.499 31.6494 240 28.9257 240 25.3642C240 21.9519 237.071 20.0367 233.684 18.81C232.433 18.3904 231.365 17.8511 231.243 16.654C231.151 15.457 231.853 14.35 233.41 14.2599C234.08 14.2303 235.454 14.2007 237.865 15.1583L238.414 11.0279C235.607 10.0702 234.111 10.0702 232.981 10.1295C229.35 10.3096 226.818 13.0629 226.818 16.654C226.818 20.2464 229.87 21.9519 233.288 23.1786C234.508 23.5982 235.454 24.1362 235.546 25.3642C235.668 26.5316 234.568 27.4288 233.288 27.5188C232.281 27.609 229.564 27.5485 227.061 25.8134L226.513 30.3016Z" fill="#0049AB"/>
<path d="M67.4209 45.2355H69.0849L67.3802 42.2648C69.5364 41.6495 69.2805 38.0339 66.6611 38.0339H63.7661V45.2355H65.2345V42.4862H65.9432L67.4209 45.2355ZM65.2345 41.0857V39.4742H66.5285C67.5246 39.4742 67.5246 41.0857 66.5285 41.0857H65.2345Z" fill="#0049AB"/>
<path d="M73.591 45.3359C78.6422 45.3359 78.6422 37.9141 73.591 37.9141C68.5385 37.9141 68.5385 45.3359 73.591 45.3359ZM73.591 43.8453C70.654 43.8453 70.654 39.3943 73.591 39.3943C76.5267 39.3943 76.5267 43.8453 73.591 43.8453Z" fill="#0049AB"/>
<path d="M78.7525 45.2354H81.658C82.8496 45.2354 83.8247 44.2791 83.8247 43.0705C83.8247 42.5068 83.5478 41.9519 83.0648 41.6302C83.5267 41.3174 83.7224 40.7536 83.7433 40.2105C83.7735 38.9413 82.9625 38.0249 81.658 38.0249H78.7525V45.2354ZM80.2315 39.4652H81.5346C81.9559 39.4652 82.2131 39.787 82.2131 40.1899C82.2131 40.5825 81.9559 40.9146 81.5346 40.9146H80.2315V39.4652ZM80.2315 42.3549H81.5346C81.9559 42.3549 82.2748 42.6676 82.2748 43.0705C82.2748 43.4734 81.9559 43.7951 81.5346 43.7951H80.2315V42.3549Z" fill="#0049AB"/>
<path d="M88.6598 45.3359C93.711 45.3359 93.711 37.9141 88.6598 37.9141C83.6073 37.9141 83.6073 45.3359 88.6598 45.3359ZM88.6598 43.8453C85.7228 43.8453 85.7228 39.3943 88.6598 39.3943C91.5955 39.3943 91.5955 43.8453 88.6598 43.8453Z" fill="#0049AB"/>
<path d="M96.5011 45.2355V39.4741H98.3288V38.0442H93.2045V39.4741H95.0326V45.2355H96.5011Z" fill="#0049AB"/>
<path d="M100.904 45.2355V38.0339H99.4361V45.2355H100.904Z" fill="#0049AB"/>
<path d="M107.228 39.7058L107.403 38.2256C106.962 38.0338 106.468 37.9438 105.955 37.9438C100.985 37.9438 100.975 45.2561 105.955 45.2561C106.468 45.2561 107.115 45.1351 107.567 44.9535L107.373 43.463C107.095 43.6033 106.592 43.7849 105.955 43.7849C103.05 43.7849 103.05 39.3943 105.955 39.3943C106.592 39.3943 106.951 39.5655 107.228 39.7058Z" fill="#0049AB"/>
<path d="M108.397 44.7721C109.393 45.2753 110.306 45.3256 110.717 45.296C112.095 45.2252 112.936 44.3087 112.936 43.1103C112.936 41.9622 111.95 41.3174 110.811 40.9042C110.389 40.7639 110.03 40.5824 109.989 40.1795C109.958 39.7767 110.194 39.4047 110.717 39.3738C110.943 39.3635 111.405 39.3532 112.217 39.6763L112.401 38.2862C111.457 37.9644 110.954 37.9644 110.575 37.9836C109.351 38.0442 108.5 38.9709 108.5 40.1795C108.5 41.3882 109.526 41.9622 110.677 42.3754C111.088 42.5157 111.405 42.6972 111.437 43.1103C111.477 43.5029 111.107 43.8055 110.677 43.835C110.339 43.866 109.423 43.8454 108.582 43.261L108.397 44.7721Z" fill="#0049AB"/>
<path d="M124.78 45.3861H125.108L128.148 38.0339H126.454L125.468 40.4821L124.944 41.9224L124.411 40.4318L123.435 38.0339H121.741L124.78 45.3861Z" fill="#0049AB"/>
<path d="M130.508 45.2355V38.0339H129.04V45.2355H130.508Z" fill="#0049AB"/>
<path d="M131.821 44.7721C132.818 45.2753 133.731 45.3256 134.141 45.296C135.518 45.2252 136.36 44.3087 136.36 43.1103C136.36 41.9622 135.375 41.3174 134.235 40.9042C133.814 40.7639 133.455 40.5824 133.414 40.1795C133.382 39.7767 133.619 39.4047 134.141 39.3738C134.368 39.3635 134.829 39.3532 135.641 39.6763L135.825 38.2862C134.881 37.9644 134.379 37.9644 133.999 37.9836C132.776 38.0442 131.924 38.9709 131.924 40.1795C131.924 41.3882 132.95 41.9622 134.101 42.3754C134.512 42.5157 134.829 42.6972 134.861 43.1103C134.901 43.5029 134.532 43.8055 134.101 43.835C133.763 43.866 132.848 43.8454 132.007 43.261L131.821 44.7721Z" fill="#0049AB"/>
<path d="M139.058 45.2355V38.0339H137.59V45.2355H139.058Z" fill="#0049AB"/>
<path d="M144.244 45.3359C149.295 45.3359 149.295 37.9141 144.244 37.9141C139.191 37.9141 139.191 45.3359 144.244 45.3359ZM144.244 43.8453C141.306 43.8453 141.306 39.3943 144.244 39.3943C147.18 39.3943 147.18 43.8453 144.244 43.8453Z" fill="#0049AB"/>
<path d="M150.873 41.3174L154.59 45.3861H154.981V38.0442H153.502V42.1129L149.795 37.8832H149.405V45.2355H150.873V41.3174Z" fill="#0049AB"/>
<path d="M164.309 45.2355H165.973L166.261 44.4606H168.694L168.991 45.2355H170.645L167.554 37.7726H167.399L164.309 45.2355ZM166.794 43.1104L167.482 41.2376L168.15 43.1104H166.794Z" fill="#0049AB"/>
<path d="M176.937 42.7281V38.0339H175.479V42.7179C175.479 44.2289 173.098 44.2289 173.098 42.7179V38.0339H171.628V42.7281C171.628 46.1519 176.937 46.1519 176.937 42.7281Z" fill="#0049AB"/>
<path d="M181.237 45.2355V39.4741H183.064V38.0442H177.94V39.4741H179.768V45.2355H181.237Z" fill="#0049AB"/>
<path d="M187.704 45.3359C192.756 45.3359 192.756 37.9141 187.704 37.9141C182.652 37.9141 182.652 45.3359 187.704 45.3359ZM187.704 43.8453C184.768 43.8453 184.768 39.3943 187.704 39.3943C190.64 39.3943 190.64 43.8453 187.704 43.8453Z" fill="#0049AB"/>
<path d="M196.233 41.0856L193.339 37.9231H192.866V45.2354H194.355V41.2169L196.233 43.1502L198.113 41.2169L198.102 45.2354H199.592V37.9231H199.13L196.233 41.0856Z" fill="#0049AB"/>
<path d="M200.584 45.2355H202.249L202.536 44.4606H204.969L205.267 45.2355H206.921L203.83 37.7726H203.675L200.584 45.2355ZM203.07 43.1104L203.758 41.2376L204.425 43.1104H203.07Z" fill="#0049AB"/>
<path d="M210.624 45.2355V39.4741H212.453V38.0442H207.328V39.4741H209.156V45.2355H210.624Z" fill="#0049AB"/>
<path d="M215.028 45.2355V38.0339H213.56V45.2355H215.028Z" fill="#0049AB"/>
<path d="M220.213 45.3359C225.264 45.3359 225.264 37.9141 220.213 37.9141C215.161 37.9141 215.161 45.3359 220.213 45.3359ZM220.213 43.8453C217.276 43.8453 217.276 39.3943 220.213 39.3943C223.149 39.3943 223.149 43.8453 220.213 43.8453Z" fill="#0049AB"/>
<path d="M226.843 41.3174L230.56 45.3861H230.951V38.0442H229.472V42.1129L225.764 37.8832H225.375V45.2355H226.843V41.3174Z" fill="#0049AB"/>
</g>
<defs>
<clipPath id="clip0_123_1782">
<rect width="240" height="49.7561" fill="white"/>
</clipPath>
</defs>
</svg>
